<?xml version="1.0" standalone="no"?><!-- Generator: Gravit.io --><svg xmlns="http://www.w3.org/2000/svg" xmlns:xlink="http://www.w3.org/1999/xlink" style="isolation:isolate" viewBox="0 0 320 280" width="320" height="280"><defs><clipPath id="_clipPath_aMx4jCmICofA1kuDXI9bz29PJzUxjzzI"><rect width="320" height="280"/></clipPath></defs><g clip-path="url(#_clipPath_aMx4jCmICofA1kuDXI9bz29PJzUxjzzI)"><g id="Group"><path d=" M 146.929 190.187 L 212.311 190.187 L 212.311 200.947 L 200.874 200.947 C 191.779 214.24 174.705 222.466 156.16 222.466 L 150.224 222.466 C 135.764 222.466 124.055 232.105 124.055 244.008 C 124.055 255.911 135.791 265.55 150.278 265.55 C 151.912 265.55 156.759 265.528 156.759 265.528 L 172.036 255.037 C 181.54 248.514 195.972 254.096 195.972 264.273 C 195.972 270.908 189.437 276.288 181.377 276.288 L 146.956 276.288 C 118.064 276.288 94.645 257.01 94.645 233.226 C 94.645 209.465 118.064 190.187 146.929 190.187 L 146.929 190.187 Z " fill="rgb(243,115,89)"/><path d=" M 179.634 198.257 C 177.829 198.257 176.366 199.461 176.366 200.947 C 176.366 202.432 177.829 203.637 179.634 203.637 C 181.438 203.637 182.901 202.432 182.901 200.947 C 182.901 199.461 181.438 198.257 179.634 198.257 Z  M 131.053 189.402 C 131.598 189.044 132.306 188.842 133.041 188.842 C 133.177 188.842 133.313 188.842 133.45 188.865 C 137.779 187.968 142.3 187.497 146.956 187.497 L 212.311 187.497 C 214.109 187.497 215.579 188.708 215.579 190.187 C 215.579 191.667 214.109 192.877 212.311 192.877 L 146.929 192.877 C 143.28 192.877 139.713 193.213 136.309 193.841 L 136.309 208.344 C 136.309 214.666 142.545 219.799 150.224 219.799 L 156.16 219.799 C 173.479 219.799 189.546 212.065 198.042 199.647 C 198.62 198.795 199.716 198.27 200.901 198.279 L 212.338 198.279 C 217.757 198.279 222.142 194.648 222.142 190.209 C 222.142 185.749 217.73 182.14 212.338 182.14 L 114.279 182.14 C 108.86 182.14 104.475 178.508 104.475 174.07 C 104.475 169.609 108.887 166 114.279 166 L 117.546 166 C 119.344 166 120.814 167.21 120.814 168.69 C 120.814 170.169 119.344 171.38 117.546 171.38 L 114.279 171.38 C 112.481 171.38 111.011 172.59 111.011 174.07 C 111.011 175.549 112.481 176.76 114.279 176.76 L 212.311 176.76 C 221.325 176.76 228.65 182.79 228.65 190.209 C 228.65 197.629 221.325 203.659 212.311 203.659 L 202.753 203.659 C 197.634 210.563 190.417 216.078 182.03 219.799 L 186.169 219.799 C 187.15 219.799 188.103 220.18 188.729 220.808 L 201.8 234.257 C 202.916 235.423 202.699 237.104 201.283 238.046 C 200.683 238.449 199.948 238.628 199.24 238.628 C 198.287 238.628 197.334 238.292 196.681 237.62 L 184.59 225.179 L 173.343 225.179 L 182.166 234.257 C 183.283 235.423 183.065 237.104 181.649 238.046 C 181.05 238.449 180.315 238.628 179.607 238.628 C 178.653 238.628 177.7 238.292 177.047 237.62 L 164.956 225.179 L 153.71 225.179 L 162.533 234.257 C 163.649 235.423 163.431 237.104 162.015 238.046 C 161.416 238.449 160.681 238.628 159.973 238.628 C 159.02 238.628 158.067 238.292 157.413 237.62 L 145.676 225.537 C 142.272 226.098 139.141 227.286 136.472 228.922 L 142.681 234.033 C 143.959 235.085 143.959 236.792 142.681 237.844 C 141.403 238.896 139.33 238.896 138.052 237.844 L 131.843 232.733 C 129.583 235.199 128.058 238.135 127.513 241.318 L 137.071 241.318 C 138.869 241.318 140.339 242.529 140.339 244.008 C 140.339 245.488 138.869 246.698 137.071 246.698 L 127.513 246.698 C 128.058 249.881 129.583 252.818 131.843 255.284 L 138.052 250.173 C 139.33 249.12 141.403 249.12 142.681 250.173 C 143.959 251.225 143.959 252.931 142.681 253.984 L 136.499 259.094 C 140.461 261.554 145.289 262.884 150.251 262.883 C 151.34 262.883 154.009 262.86 155.534 262.86 L 169.912 252.997 C 175.304 249.299 182.575 248.536 188.92 250.98 C 195.264 253.423 199.213 258.534 199.213 264.295 C 199.213 272.41 191.207 279 181.349 279 L 146.929 279 C 121.223 279 99.547 264.564 93.229 245.039 C 93.12 244.838 93.066 244.614 93.011 244.389 C 91.922 240.825 91.35 237.104 91.35 233.271 C 91.377 212.558 108.124 195.051 131.053 189.402 L 131.053 189.402 Z  M 160.027 273.598 L 181.377 273.598 C 187.627 273.585 192.69 269.418 192.705 264.273 C 192.705 260.551 190.254 257.391 186.169 255.822 C 184.645 255.227 182.982 254.913 181.295 254.903 C 178.735 254.903 176.23 255.642 174.106 257.099 L 160 266.783 L 160 273.598 L 160.027 273.598 Z  M 131.87 225.089 C 133.811 223.82 135.932 222.751 138.188 221.906 C 132.913 218.743 129.795 213.694 129.801 208.322 L 129.801 195.432 C 122.012 197.831 115.15 201.821 109.813 206.932 L 131.87 225.089 Z  M 146.929 273.598 L 153.464 273.598 L 153.464 268.24 L 150.251 268.24 C 143.28 268.24 136.881 266.245 131.843 262.905 L 124.382 269.047 C 131.135 271.961 138.814 273.598 146.929 273.598 Z  M 118.636 266.178 L 127.241 259.117 C 123.767 255.549 121.595 251.243 120.978 246.698 L 100.718 246.698 C 104.109 254.556 110.367 261.36 118.636 266.178 L 118.636 266.178 Z  M 97.913 233.249 C 97.913 236.028 98.267 238.718 98.893 241.341 L 120.978 241.341 C 121.595 236.797 123.767 232.49 127.241 228.922 L 105.837 211.303 C 100.826 217.602 97.913 225.134 97.913 233.249 L 97.913 233.249 Z " fill="rgb(36,51,51)"/></g><g id="Group"><g id="Group"><path d=" M 134.45 140.4 L 124.65 140.4 L 124.65 41 L 165.81 41 L 165.81 41 Q 172.25 41 177.64 43.73 L 177.64 43.73 L 177.64 43.73 Q 183.03 46.46 186.95 50.87 L 186.95 50.87 L 186.95 50.87 Q 190.87 55.28 193.11 60.88 L 193.11 60.88 L 193.11 60.88 Q 195.35 66.48 195.35 72.22 L 195.35 72.22 L 195.35 72.22 Q 195.35 78.38 193.25 84.05 L 193.25 84.05 L 193.25 84.05 Q 191.15 89.72 187.37 94.06 L 187.37 94.06 L 187.37 94.06 Q 183.59 98.4 178.34 101.06 L 178.34 101.06 L 178.34 101.06 Q 173.09 103.72 166.65 103.72 L 166.65 103.72 L 134.45 103.72 L 134.45 140.4 Z " fill="rgb(36,51,51)"/><path d=" M 134.45 49.68 L 134.45 95.04 L 166.23 95.04 L 166.23 95.04 Q 170.57 95.04 174.14 93.15 L 174.14 93.15 L 174.14 93.15 Q 177.71 91.26 180.23 88.11 L 180.23 88.11 L 180.23 88.11 Q 182.75 84.96 184.15 80.83 L 184.15 80.83 L 184.15 80.83 Q 185.55 76.7 185.55 72.22 L 185.55 72.22 L 185.55 72.22 Q 185.55 67.6 183.94 63.47 L 183.94 63.47 L 183.94 63.47 Q 182.33 59.34 179.6 56.26 L 179.6 56.26 L 179.6 56.26 Q 176.87 53.18 173.16 51.43 L 173.16 51.43 L 173.16 51.43 Q 169.45 49.68 165.39 49.68 L 165.39 49.68 L 134.45 49.68 Z " fill="rgb(255,255,255)"/></g><path d=" M 141.17 169.32 L 143.97 161.48 L 143.97 161.48 Q 147.05 163.58 151.88 165.12 L 151.88 165.12 L 151.88 165.12 Q 156.71 166.66 162.73 166.66 L 162.73 166.66 L 162.73 166.66 Q 170.29 166.66 174.84 163.93 L 174.84 163.93 L 174.84 163.93 Q 179.39 161.2 181.77 155.88 L 181.77 155.88 L 181.77 155.88 Q 184.15 150.56 184.85 142.79 L 184.85 142.79 L 184.85 142.79 Q 185.55 135.02 185.55 125.08 L 185.55 125.08 L 185.55 74.54 L 195.35 74.54 L 195.35 125.08 L 195.35 125.08 Q 195.35 136.42 194.3 145.73 L 194.3 145.73 L 194.3 145.73 Q 193.25 155.04 189.89 161.62 L 189.89 161.62 L 189.89 161.62 Q 186.53 168.2 180.09 171.84 L 180.09 171.84 L 180.09 171.84 Q 173.65 175.48 162.73 175.48 L 162.73 175.48 L 162.73 175.48 Q 150.13 175.48 141.17 169.32 L 141.17 169.32 Z " fill="rgb(243,115,89)"/></g></g></svg>