<?xml version="1.0" standalone="no"?><!-- Generator: Gravit.io --><svg xmlns="http://www.w3.org/2000/svg" xmlns:xlink="http://www.w3.org/1999/xlink" style="isolation:isolate" viewBox="0 0 256 256" width="256" height="256"><defs><clipPath id="_clipPath_HCbUVWq4nnCEaF77lqgOjojj1cvrQd6N"><rect width="256" height="256"/></clipPath></defs><g clip-path="url(#_clipPath_HCbUVWq4nnCEaF77lqgOjojj1cvrQd6N)"><path d=" M 5.704 128.991 C 5.704 61.488 60.508 6.683 128.012 6.683 C 195.516 6.683 250.32 61.488 250.32 128.991 C 250.32 196.495 195.516 251.299 128.012 251.299 C 60.508 251.299 5.704 196.495 5.704 128.991 Z " fill="rgb(29,55,77)"/><path d=" M 120.264 155.371 C 119.334 153.025 118.322 150.638 116.785 148.615 C 115.288 146.632 113.467 145.701 110.999 145.904 C 110.716 145.944 110.554 146.146 110.513 146.389 C 110.432 146.47 110.351 146.551 110.311 146.672 C 109.583 148.331 110.028 150.314 111.08 151.69 C 112.698 153.794 115.288 153.996 117.675 153.268 C 117.918 153.187 118.079 153.065 118.201 152.903 C 120.79 158.042 122.206 164.111 123.663 169.492 C 123.825 170.099 124.796 169.856 124.634 169.209 C 123.38 164.556 122.045 159.863 120.264 155.371 L 120.264 155.371 Z  M 117.149 151.285 C 115.611 151.73 113.791 151.851 112.698 150.435 C 112.172 149.788 111.687 148.534 112.091 147.684 C 112.213 147.401 112.213 147.118 112.132 146.875 C 113.952 147.037 115.207 148.008 116.38 149.707 C 116.744 150.233 117.027 150.759 117.351 151.285 L 117.149 151.285 L 117.149 151.285 Z  M 116.542 155.817 C 113.872 156.707 111.242 155.493 109.987 153.025 C 109.704 152.418 110.594 151.932 110.877 152.499 C 111.929 154.603 114.033 155.574 116.299 154.805 C 116.906 154.603 117.189 155.574 116.542 155.817 Z  M 114.964 143.152 C 117.23 143.597 118.686 146.066 119.334 148.089 C 119.536 148.736 118.565 148.979 118.363 148.372 C 117.796 146.632 116.623 144.528 114.721 144.123 C 114.114 144.002 114.357 143.031 114.964 143.152 L 114.964 143.152 Z  M 118.97 193.607 C 122.287 199.838 124.796 206.635 125.443 213.716 C 125.484 214.363 124.472 214.363 124.432 213.716 C 123.784 206.635 121.154 199.838 117.796 193.607 C 116.582 191.341 115.207 189.116 113.75 187.012 C 113.022 185.919 112.253 184.705 111.242 183.856 C 110.756 183.411 111.484 182.723 111.97 183.127 C 113.022 184.018 113.831 185.353 114.64 186.486 C 116.218 188.792 117.675 191.179 118.97 193.607 L 118.97 193.607 Z  M 145.552 146.389 C 145.512 146.146 145.35 145.944 145.067 145.904 C 142.599 145.701 140.778 146.632 139.281 148.615 C 137.784 150.557 136.813 152.903 135.882 155.169 C 134.061 159.741 132.686 164.516 131.431 169.249 C 131.27 169.856 132.241 170.14 132.402 169.533 C 133.859 164.151 135.235 158.082 137.865 152.944 C 137.986 153.106 138.148 153.227 138.391 153.308 C 140.737 153.955 143.367 153.753 144.986 151.69 C 146.038 150.273 146.483 148.291 145.754 146.672 C 145.714 146.551 145.633 146.47 145.552 146.389 Z  M 143.408 150.395 C 142.315 151.811 140.495 151.73 138.957 151.245 C 138.876 151.285 138.795 151.285 138.755 151.245 L 139.726 149.667 C 140.859 147.967 142.153 146.996 143.974 146.834 C 143.893 147.077 143.893 147.36 144.015 147.644 C 144.379 148.493 143.893 149.747 143.408 150.395 L 143.408 150.395 Z  M 146.038 152.944 C 144.824 155.452 142.153 156.626 139.483 155.736 C 138.876 155.533 139.159 154.562 139.766 154.765 C 142.032 155.533 144.136 154.562 145.188 152.458 C 145.512 151.892 146.361 152.418 146.038 152.944 Z  M 136.691 148.089 C 137.379 146.066 138.795 143.597 141.061 143.152 C 141.708 143.031 141.992 144.002 141.344 144.123 C 139.443 144.528 138.269 146.672 137.703 148.372 C 137.501 148.979 136.529 148.736 136.691 148.089 Z  M 163.355 111.634 L 163.395 111.593 L 163.476 111.593 C 163.355 111.715 163.314 111.674 163.355 111.634 Z  M 217.896 64.335 C 216.925 61.503 214.254 55.434 210.37 55.596 C 208.792 55.677 208.266 57.052 208.387 58.428 C 208.468 59.561 208.954 60.653 209.439 61.624 C 210.329 63.445 211.179 65.185 211.665 67.208 C 212.555 70.769 212.717 74.653 212.352 78.456 C 212.069 77.364 211.705 76.312 211.301 75.26 C 210.046 72.104 207.74 66.682 203.937 65.913 C 203.694 65.873 203.492 65.832 203.33 65.832 C 204.503 62.717 205.312 59.48 205.353 56.243 C 205.353 55.151 205.555 52.804 204.26 52.238 C 203.087 51.752 202.318 53.087 201.873 53.937 C 199.85 57.862 198.717 62.434 196.29 66.196 C 195.602 61.948 194.55 57.7 193.053 53.694 C 191.799 50.417 190.261 47.018 187.712 44.51 C 186.579 43.377 184.435 41.475 182.614 42.001 C 179.66 42.891 182.654 47.504 183.464 48.798 C 184.92 51.105 185.972 53.411 186.781 55.96 C 189.128 63.324 190.059 71.214 189.614 78.901 C 188.966 89.097 185.325 99.091 177.152 105.565 L 177.03 105.686 C 176.14 105.929 175.25 106.212 174.36 106.455 L 172.661 106.94 C 176.1 103.339 178.932 98.686 179.984 93.952 C 180.227 92.82 180.591 90.918 179.256 90.311 C 177.718 89.623 176.302 91.606 175.533 92.617 C 173.753 95.004 172.377 97.715 170.759 100.224 C 169.1 102.854 166.996 104.31 164.245 105.726 C 160.199 107.79 155.91 109.125 151.581 110.42 C 149.072 111.189 147.049 112.726 145.35 114.668 C 142.437 117.946 140.252 122.032 138.755 126.159 C 138.714 126.199 138.674 126.199 138.674 126.24 C 136.934 127.818 135.801 129.274 133.374 129.881 C 131.593 130.326 129.732 130.529 127.911 130.569 C 126.091 130.488 124.27 130.286 122.53 129.841 C 120.143 129.234 119.05 127.656 117.311 126.159 L 117.27 126.159 C 115.975 122.598 114.155 119.119 111.889 116.125 C 110.311 114.061 108.45 112.119 106.063 111.027 C 104.566 110.339 102.907 110.015 101.369 109.53 C 99.103 108.801 96.878 107.992 94.693 107.062 C 91.861 105.848 88.422 104.432 86.439 101.923 C 84.619 99.617 83.324 96.866 81.746 94.397 C 80.896 93.062 79.399 90.23 77.498 90.149 C 76.041 90.109 75.758 91.565 75.839 92.698 C 76.041 95.328 77.336 97.958 78.59 100.224 C 79.925 102.651 81.503 104.917 83.405 106.9 L 78.995 105.686 L 78.873 105.565 C 64.995 94.559 64.267 74.167 68.515 58.307 C 69.203 55.677 70.053 53.047 71.348 50.66 C 72.359 48.879 75.879 44.995 74.301 42.689 C 73.29 41.151 71.186 42.284 70.053 43.013 C 67.221 44.914 65.359 48.03 63.984 51.105 C 61.839 55.839 60.464 61.018 59.654 66.196 C 57.47 62.798 56.256 58.711 54.637 55.11 C 54.233 54.18 53.666 52.44 52.533 52.157 C 51.117 51.793 50.794 53.451 50.713 54.463 C 50.349 58.266 51.239 62.11 52.655 65.751 C 49.337 65.428 46.262 71.578 45.291 73.722 C 44.644 75.179 44.077 76.757 43.632 78.335 C 43.389 75.664 43.389 72.953 43.713 70.323 C 43.915 68.462 44.36 66.642 44.967 64.861 C 45.534 63.324 46.424 61.948 47.031 60.411 C 47.516 59.156 48.083 57.295 47.031 56.162 C 44.563 53.492 40.719 58.792 39.748 60.532 C 37.158 65.064 36.471 70.526 36.551 75.664 C 36.754 85.618 40.881 94.964 48.285 101.68 C 58.845 111.27 73.573 114.587 87.127 117.784 C 91.335 118.755 95.948 119.483 99.791 121.546 C 103.028 123.286 105.213 126.199 107.115 129.274 C 106.791 129.517 106.629 129.922 106.71 130.367 C 107.357 133.442 110.23 136.719 107.438 139.268 C 104.687 134.818 99.387 131.783 94.37 130.933 C 89.474 130.084 84.416 130.812 79.44 130.488 C 78.509 130.448 77.538 130.367 76.607 130.205 C 76.284 130.165 76 129.962 76.203 130.124 C 75.475 129.598 74.463 130.448 74.706 131.257 C 76.81 138.176 81.948 145.175 88.907 147.684 C 93.722 149.424 99.468 148.979 104.485 148.574 C 104.687 148.574 105.213 148.574 105.294 148.534 C 105.334 148.574 105.375 148.615 105.456 148.736 C 106.548 150.557 105.901 152.984 106.386 155.007 C 106.791 156.666 107.802 157.637 108.976 158.406 C 108.814 159.701 108.733 160.996 108.733 162.29 C 106.184 166.741 106.912 172.729 107.115 177.625 C 107.236 180.619 107.398 183.653 107.236 186.647 C 107.074 189.197 106.427 191.624 105.86 194.092 C 104.849 198.543 103.837 203.479 105.334 207.889 C 107.357 213.797 113.103 215.213 118.039 217.964 C 121.114 219.704 124.958 221.929 126.94 225.004 C 127.183 225.409 127.588 225.53 127.952 225.449 C 128.316 225.49 128.721 225.409 128.963 225.004 C 130.501 222.617 133.252 220.796 135.558 219.299 C 140.414 216.184 147.211 214.889 149.962 209.305 C 152.026 205.097 151.378 200.242 150.448 195.832 C 149.962 193.566 149.315 191.341 148.951 189.035 C 148.465 186.122 148.587 183.127 148.708 180.214 C 148.91 174.59 150.124 167.388 147.211 162.25 C 147.211 160.955 147.09 159.701 146.968 158.446 C 147.777 157.961 148.425 157.435 148.951 156.545 C 150.165 154.4 149.477 152.054 150.003 149.788 C 150.124 149.262 150.367 148.736 150.691 148.453 L 150.852 148.453 C 155.425 148.938 160.442 149.141 164.973 148.17 C 169.95 147.118 173.996 143.759 176.909 139.713 C 178.73 137.164 180.308 134.211 181.238 131.176 C 181.481 130.367 180.47 129.517 179.741 130.043 C 179.903 129.922 179.66 130.084 179.337 130.124 C 178.447 130.286 177.556 130.367 176.707 130.407 C 171.69 130.731 166.551 129.962 161.615 130.852 C 156.598 131.743 151.298 134.737 148.546 139.187 C 145.754 136.638 148.627 133.361 149.275 130.286 C 149.355 129.841 149.194 129.436 148.87 129.194 C 150.529 126.483 152.43 123.812 155.141 122.072 C 158.176 120.13 161.817 119.362 165.297 118.552 C 178.568 115.396 193.012 112.686 204.22 104.472 C 212.595 98.322 218.098 89.38 219.231 79.022 C 219.716 74.289 219.474 69.029 217.896 64.335 L 217.896 64.335 Z  M 87.491 144.852 C 85.855 143.953 84.367 142.807 83.081 141.453 C 83.324 141.696 83.567 141.898 83.85 142.1 C 86.439 144.245 89.312 145.701 92.347 146.43 C 90.647 146.187 89.029 145.701 87.491 144.852 L 87.491 144.852 Z  M 83.728 140.684 C 81.357 138.541 79.348 136.026 77.781 133.24 C 79.885 134.211 82.07 134.777 84.376 135.101 C 87.532 135.546 90.809 135.505 93.844 136.557 C 97.93 137.973 99.953 141.979 103.311 144.204 C 101.855 144.043 100.479 143.638 99.184 142.91 C 97.809 142.141 96.676 141.048 95.3 140.28 C 92.266 138.54 88.665 137.893 85.185 138.419 C 84.538 138.499 84.821 139.511 85.468 139.39 C 89.717 138.742 93.479 140.158 96.878 142.586 C 98.82 144.002 100.762 144.811 102.988 145.175 C 96.15 147.037 89.272 145.701 83.728 140.684 L 83.728 140.684 Z  M 104.121 146.672 C 102.664 146.794 101.207 146.875 99.71 146.875 C 101.41 146.672 103.15 146.268 104.849 145.701 C 104.97 145.985 105.132 146.308 105.334 146.592 C 104.93 146.551 104.525 146.632 104.121 146.672 L 104.121 146.672 Z  M 104.485 143.719 C 102.745 142.707 101.531 141.129 100.155 139.632 C 98.618 137.973 96.878 136.598 94.774 135.789 C 89.595 133.766 83.931 134.615 78.792 132.552 C 82.919 132.875 87.087 132.511 91.254 132.673 C 96.797 132.916 102.947 135.667 105.901 140.644 C 105.049 141.447 104.542 142.549 104.485 143.719 Z  M 152.916 146.753 C 152.269 146.713 151.5 146.511 150.772 146.551 C 150.933 146.268 151.095 145.985 151.217 145.701 C 152.956 146.308 154.737 146.713 156.476 146.915 C 155.303 146.875 154.089 146.834 152.916 146.753 Z  M 163.921 146.389 C 166.875 145.661 169.707 144.245 172.256 142.1 L 172.297 142.06 C 169.909 144.204 167.077 145.782 163.921 146.389 L 163.921 146.389 Z  M 172.337 140.684 C 166.834 145.661 159.916 147.037 153.037 145.175 C 155.263 144.852 157.205 144.002 159.147 142.586 C 162.505 140.158 166.308 138.742 170.557 139.39 C 171.204 139.471 171.487 138.499 170.84 138.419 C 167.401 137.893 163.8 138.54 160.725 140.28 C 159.43 141.008 158.338 142.02 157.043 142.788 C 155.667 143.597 154.251 144.043 152.714 144.204 C 156.072 141.979 158.054 137.973 162.181 136.557 C 165.135 135.546 168.291 135.546 171.326 135.141 C 173.753 134.858 176.059 134.292 178.285 133.24 C 176.788 136.031 174.643 138.58 172.337 140.684 L 172.337 140.684 Z  M 164.811 132.673 C 168.979 132.511 173.187 132.875 177.354 132.552 C 172.216 134.656 166.551 133.806 161.372 135.789 C 159.228 136.598 157.528 137.973 155.991 139.632 C 154.615 141.129 153.361 142.707 151.662 143.719 C 151.621 142.586 151.136 141.534 150.246 140.644 C 153.118 135.667 159.268 132.916 164.811 132.673 Z  M 190.747 63.647 C 189.816 58.307 188.4 52.764 185.446 48.151 C 184.799 47.14 184.071 46.047 183.666 44.874 C 183.626 44.752 183.585 44.429 183.504 44.186 C 183.787 44.307 184.111 44.388 184.313 44.51 C 187.186 46.088 188.926 49.324 190.221 52.197 C 192.527 57.336 193.983 63.486 194.631 68.867 C 194.712 69.636 195.723 70.323 196.371 69.595 C 199.001 66.48 200.498 62.434 202.035 58.711 C 202.399 57.821 202.763 56.931 203.127 56.081 C 203.168 56 203.208 55.879 203.289 55.758 C 203.33 56.729 203.249 57.74 203.087 58.711 C 202.359 63.85 200.052 68.745 197.463 73.196 C 196.977 74.046 196.209 74.936 195.966 75.867 C 195.683 76.999 196.006 78.577 195.926 79.751 C 195.845 81.45 195.683 83.19 195.4 84.849 C 194.307 91.242 192.001 98.241 186.903 102.57 L 186.822 102.651 C 185.082 103.299 183.302 103.906 181.522 104.472 C 191.758 93.952 193.174 77.606 190.747 63.647 L 190.747 63.647 Z  M 198.029 77.121 C 197.949 76.271 197.868 76.554 198.313 75.786 C 198.758 74.976 199.284 74.208 199.729 73.398 C 200.417 72.185 201.064 70.93 201.671 69.636 C 201.792 70 201.954 70.364 202.116 70.647 C 202.925 71.982 203.856 73.156 204.503 74.612 C 205.304 76.492 205.809 78.485 206 80.52 C 206.445 85.537 204.908 90.473 201.59 94.317 C 199.688 96.542 197.139 98.039 194.59 99.334 C 193.538 99.86 192.446 100.386 191.313 100.871 C 194.307 96.906 196.047 91.929 197.018 87.195 C 197.706 83.999 198.272 80.398 198.029 77.121 L 198.029 77.121 Z  M 52.898 55.919 C 53.059 56.324 53.262 56.769 53.464 57.255 C 55.244 61.463 56.741 66.075 59.735 69.595 C 60.383 70.364 61.394 69.636 61.475 68.867 C 62.001 64.416 63.215 59.318 64.793 54.908 C 65.966 51.712 67.463 48.313 69.931 45.926 C 70.741 45.157 71.752 44.833 72.602 44.226 C 72.561 44.429 72.521 44.631 72.48 44.752 C 71.631 47.463 69.486 49.81 68.394 52.48 C 67.301 55.191 66.492 58.023 65.885 60.856 C 64.267 68.26 63.781 76.028 64.874 83.554 C 66.007 91.363 69.082 98.848 74.544 104.472 C 72.764 103.906 70.943 103.299 69.203 102.651 L 69.163 102.611 C 64.672 98.767 62.406 92.9 61.151 87.276 C 60.464 84.242 60.099 81.126 60.099 78.011 C 60.099 76.271 60.099 75.664 59.25 74.289 C 56.741 70.162 54.556 65.63 53.424 60.937 C 53.1 59.52 52.857 58.064 52.817 56.607 C 52.817 56.486 52.857 56.243 52.898 55.919 L 52.898 55.919 Z  M 58.076 79.427 C 58.157 81.126 58.319 82.785 58.562 84.485 C 59.412 90.068 61.192 96.178 64.712 100.79 C 64.429 100.669 64.105 100.547 63.822 100.386 C 61.03 99.131 58.117 97.675 55.811 95.611 C 52.424 92.492 50.367 88.189 50.065 83.595 C 49.823 79.751 50.632 75.664 52.695 72.427 C 53.1 71.78 53.909 70.688 54.395 69.555 C 54.759 70.323 55.082 71.011 55.447 71.659 C 55.932 72.63 56.458 73.56 56.984 74.491 C 57.308 75.017 57.915 75.705 58.117 76.312 C 58.319 76.999 58.036 78.496 58.076 79.427 Z  M 103.271 121.385 C 100.843 119.483 97.971 118.431 95.017 117.622 C 83.122 114.385 70.538 112.564 59.452 106.859 C 49.863 101.923 42.175 93.952 39.626 83.271 C 38.655 79.265 38.453 75.138 38.858 71.052 C 39.262 66.763 40.678 59.966 45.048 57.821 C 45.574 57.538 45.574 57.619 45.655 57.781 C 45.979 58.428 45.129 60.087 44.846 60.613 C 43.308 63.809 42.175 66.844 41.771 70.404 C 41.245 75.098 41.569 80.115 42.782 84.687 C 43.066 85.82 44.724 85.537 44.805 84.404 C 44.927 81.491 45.696 78.537 46.748 75.826 C 47.678 73.479 48.892 70.93 50.753 69.15 C 50.915 68.988 52.291 67.613 52.695 67.896 C 53.059 68.139 52.412 69.231 52.21 69.636 C 50.591 72.427 49.054 74.734 48.447 78.011 C 47.719 81.612 47.88 85.375 49.094 88.854 C 51.279 95.288 56.134 99.05 62.042 101.842 C 67.868 104.553 74.018 106.495 80.208 108.275 C 83.081 109.085 85.954 109.853 88.867 110.622 L 91.659 111.35 C 91.942 111.431 92.266 111.593 92.549 111.593 L 92.63 111.593 C 92.711 111.715 92.792 111.674 92.751 111.634 C 92.751 111.634 92.711 111.634 92.711 111.593 C 92.67 111.593 92.67 111.593 92.63 111.553 C 92.589 111.512 92.589 111.472 92.549 111.431 C 92.589 111.512 92.67 111.553 92.751 111.593 C 92.751 111.593 92.792 111.593 92.792 111.634 C 93.52 112.079 94.693 111.553 94.329 110.582 C 93.965 109.53 92.185 109.368 91.295 109.085 C 90.081 108.761 88.867 108.437 87.613 108.114 C 87.572 108.033 87.491 107.952 87.41 107.871 C 83.202 104.432 79.723 99.415 78.266 94.114 C 78.185 93.871 78.185 93.386 78.145 92.941 C 78.307 93.062 78.428 93.184 78.509 93.265 C 80.168 95.247 81.382 97.675 82.717 99.9 C 83.769 101.68 84.861 103.501 86.48 104.836 C 88.705 106.657 91.416 107.911 94.005 109.004 C 97.323 110.42 100.722 111.391 104.161 112.483 C 106.508 113.252 108.369 114.951 109.906 116.853 C 112.051 119.523 113.791 122.679 115.045 125.916 C 114.762 126.038 114.478 126.199 114.236 126.361 C 112.577 127.373 111.161 128.425 109.38 128.87 C 107.681 126.159 105.82 123.408 103.271 121.385 L 103.271 121.385 Z  M 146.806 179.162 C 146.604 184.341 146.887 189.035 148.061 194.092 C 149.072 198.583 150.367 203.843 148.384 208.253 C 147.292 210.681 145.228 212.34 142.882 213.473 C 139.928 214.889 136.934 216.224 134.183 218.004 C 132.038 219.38 129.692 221.039 128.033 223.102 C 126.819 221.605 125.241 220.392 123.744 219.259 C 121.276 217.438 118.605 215.941 115.854 214.606 C 113.143 213.311 110.351 212.299 108.571 209.71 C 105.779 205.664 106.71 200.283 107.681 195.792 C 108.126 193.688 108.733 191.584 109.097 189.439 C 109.502 186.89 109.502 184.301 109.421 181.752 C 109.34 178.394 109.097 175.035 109.097 171.677 C 109.097 170.585 109.138 169.452 109.219 168.319 C 109.38 169.371 109.583 170.423 109.866 171.475 C 110.958 175.683 112.86 180.497 117.311 182.075 C 117.715 182.197 118.039 182.116 118.241 181.873 C 118.282 182.116 118.444 182.359 118.686 182.561 C 119.334 183.006 120.102 183.289 120.871 183.451 C 120.831 183.572 120.831 183.694 120.831 183.856 C 121.397 190.208 134.709 190.208 135.316 183.856 C 135.316 183.694 135.316 183.572 135.275 183.451 C 136.044 183.289 136.813 183.006 137.46 182.561 C 137.743 182.399 137.865 182.156 137.905 181.873 C 138.107 182.075 138.431 182.197 138.836 182.075 C 143.246 180.497 145.188 175.683 146.28 171.475 C 146.564 170.301 146.806 169.088 146.968 167.874 C 147.494 171.596 146.968 175.764 146.806 179.162 Z  M 124.675 178.434 C 126.172 178.394 127.143 177.139 126.778 175.683 C 126.495 174.59 125.726 173.66 124.836 172.972 C 125.362 172.567 125.807 172.082 126.374 171.718 C 126.9 171.394 127.385 171.313 127.952 171.151 L 127.992 171.151 C 127.547 171.151 127.588 171.03 128.033 171.151 C 128.397 171.07 128.761 171.151 128.073 171.151 C 128.68 171.313 129.125 171.353 129.651 171.718 C 130.258 172.082 130.744 172.527 131.27 172.931 C 130.339 173.619 129.53 174.509 129.247 175.642 C 128.882 177.099 129.813 178.434 131.351 178.434 C 132.16 178.434 132.767 178.151 133.252 177.665 C 132.888 178.798 132.281 179.931 131.189 180.457 C 130.379 180.862 129.489 180.74 128.599 180.7 L 128.518 180.619 L 128.518 176.816 C 128.518 176.168 127.507 176.168 127.507 176.816 L 127.507 180.619 L 127.466 180.659 C 126.576 180.7 125.686 180.862 124.836 180.457 C 123.744 179.931 123.097 178.798 122.773 177.625 C 123.258 178.151 123.865 178.474 124.675 178.434 L 124.675 178.434 Z  M 123.663 174.631 C 124.149 174.995 124.553 175.44 124.755 175.966 C 124.836 176.128 124.796 176.33 124.836 176.371 C 124.755 176.411 124.553 176.451 124.391 176.371 C 123.906 176.128 123.744 175.238 123.663 174.631 L 123.663 174.631 Z  M 131.31 176.006 C 131.512 175.44 131.917 174.995 132.402 174.631 C 132.322 175.238 132.16 176.128 131.674 176.371 C 131.553 176.451 131.351 176.411 131.229 176.371 C 131.27 176.371 131.229 176.168 131.31 176.006 L 131.31 176.006 Z  M 127.83 182.723 L 128.195 182.723 C 129.732 183.249 131.512 183.653 133.252 183.694 C 133.252 183.775 133.212 183.815 133.212 183.896 C 132.888 187.538 123.137 187.497 122.813 183.896 C 122.813 183.815 122.773 183.775 122.773 183.694 C 124.513 183.653 126.293 183.249 127.83 182.723 L 127.83 182.723 Z  M 148.384 141.736 C 149.881 142.748 149.801 144.245 148.91 145.661 C 148.546 146.227 148.829 146.794 149.315 147.037 C 147.09 148.615 148.303 153.146 147.413 155.21 C 146.685 156.909 144.905 157.233 143.489 158.204 C 142.113 159.175 140.98 160.348 139.969 161.683 C 137.46 165.001 136.125 169.007 136.044 173.134 C 136.003 174.428 138.067 174.428 138.067 173.134 C 138.148 168.966 139.726 164.88 142.518 161.805 C 143.286 160.955 144.136 160.227 145.107 159.66 C 145.35 162.573 145.188 166.579 144.581 169.533 C 143.812 173.296 142.275 178.717 138.269 180.174 C 137.865 180.336 137.622 180.659 137.581 181.023 C 137.298 180.7 136.853 180.578 136.408 180.862 C 135.477 181.469 134.304 181.711 133.131 181.671 C 133.9 181.023 134.466 180.214 134.871 179.284 C 135.72 177.382 136.651 172.244 133.495 171.839 C 132.524 171.758 131.876 170.787 131.108 170.261 C 130.389 169.711 129.538 169.362 128.64 169.249 C 127.507 169.128 126.414 169.29 125.362 169.978 C 124.594 170.463 123.987 171.272 123.218 171.637 C 122.975 171.758 122.732 171.798 122.53 171.839 C 122.409 171.839 122.247 171.879 122.125 171.92 C 121.883 172.001 121.68 172.082 121.478 172.244 C 120.588 173.012 120.467 174.428 120.467 175.521 C 120.467 177.706 121.316 180.174 123.016 181.63 C 121.842 181.671 120.669 181.469 119.738 180.821 C 119.293 180.538 118.848 180.659 118.565 180.983 C 118.525 180.619 118.322 180.295 117.877 180.133 C 113.831 178.717 112.294 173.296 111.565 169.492 C 111.08 166.984 110.918 164.435 110.958 161.886 C 110.958 161.117 110.999 160.389 111.08 159.62 C 111.687 159.984 112.294 160.429 112.86 160.955 C 116.178 164.071 117.999 168.602 118.079 173.093 C 118.12 174.388 120.143 174.428 120.102 173.093 C 120.022 169.492 118.97 165.932 117.027 162.857 C 115.247 160.065 113.062 158.487 110.23 156.869 C 106.629 154.805 109.825 149.262 106.75 146.996 C 107.236 146.753 107.6 146.187 107.196 145.621 C 106.265 144.204 106.225 142.707 107.722 141.696 C 109.178 140.684 110.311 139.632 110.716 137.812 C 111.12 136.112 110.554 134.615 109.906 133.078 C 112.496 133.563 115.328 131.864 117.23 130.043 C 117.715 129.598 116.987 128.87 116.501 129.315 C 114.762 130.974 111.808 132.875 109.38 131.864 C 109.259 131.581 109.178 131.338 109.057 131.055 C 109.178 131.014 109.259 130.974 109.34 130.933 C 110.958 130.61 112.455 129.922 113.872 128.991 C 114.276 128.708 115.369 127.656 115.895 127.696 C 115.854 127.696 116.825 128.829 117.068 129.113 C 119.576 131.581 123.056 132.39 126.495 132.633 C 126.617 132.673 126.738 132.714 126.9 132.714 L 128.64 132.714 C 128.801 132.714 128.923 132.673 129.044 132.633 C 132.524 132.43 136.084 131.702 138.633 129.274 C 138.957 128.991 139.847 127.696 140.05 127.696 C 140.292 127.656 141.506 128.668 141.87 128.91 C 143.367 129.881 144.905 130.65 146.564 130.974 C 146.645 131.014 146.766 131.095 146.887 131.095 C 146.806 131.378 146.685 131.621 146.564 131.904 C 144.176 132.916 141.182 130.974 139.443 129.355 C 138.957 128.91 138.269 129.639 138.714 130.084 C 140.616 131.864 143.448 133.604 146.038 133.118 C 145.39 134.656 144.824 136.153 145.228 137.852 C 145.795 139.632 146.928 140.725 148.384 141.736 L 148.384 141.736 Z  M 217.046 80.155 C 215.589 90.392 209.439 98.97 200.781 104.472 C 189.776 111.512 176.343 113.899 163.84 116.934 C 160.361 117.784 156.679 118.674 153.685 120.737 C 150.691 122.801 148.587 125.835 146.726 128.951 C 144.945 128.506 143.489 127.454 141.87 126.442 C 141.587 126.28 141.304 126.119 141.061 125.997 C 142.073 123.448 143.367 121.021 144.864 118.755 C 146.24 116.691 147.939 114.668 150.084 113.373 C 151.378 112.605 152.795 112.321 154.211 111.917 C 156.153 111.35 158.054 110.663 159.956 109.934 C 164.771 108.073 169.545 105.969 172.418 101.519 C 173.794 99.334 175.048 97.068 176.464 94.923 C 176.95 94.195 177.678 93.507 178.163 92.779 C 177.961 95.166 176.626 97.675 175.452 99.738 C 173.743 102.846 171.464 105.604 168.736 107.871 C 168.655 107.952 168.574 108.033 168.534 108.114 C 167.563 108.356 166.551 108.64 165.58 108.882 C 164.569 109.166 162.262 109.368 161.817 110.541 C 161.453 111.512 162.626 112.079 163.355 111.634 L 163.395 111.593 C 163.557 111.472 163.678 111.31 163.759 111.108 C 163.678 111.391 163.557 111.512 163.476 111.593 C 163.678 111.593 164.002 111.431 164.204 111.35 C 164.973 111.108 165.782 110.905 166.592 110.703 C 168.979 110.096 171.326 109.489 173.672 108.842 C 179.903 107.143 186.134 105.241 192.082 102.692 C 197.868 100.224 203.168 97.108 206.041 91.242 C 208.994 85.172 208.832 77.404 205.231 71.578 C 204.867 71.011 202.602 68.058 203.532 67.896 C 204.301 67.774 205.515 69.271 205.919 69.757 C 206.931 70.971 207.74 72.387 208.428 73.803 C 210.006 76.999 211.139 80.762 211.26 84.363 C 211.301 85.496 212.959 85.779 213.283 84.646 C 214.295 80.884 214.659 76.797 214.497 72.913 C 214.376 69.717 213.85 66.52 212.636 63.526 C 212.312 62.717 209.52 58.469 210.451 57.578 C 210.694 57.295 212.474 58.873 212.878 59.278 C 214.659 61.26 215.751 63.85 216.439 66.399 C 217.572 70.849 217.653 75.705 217.046 80.155 L 217.046 80.155 Z  M 144.864 183.815 C 143.853 184.665 143.084 185.879 142.356 186.971 C 140.899 189.075 139.524 191.3 138.31 193.566 C 134.911 199.797 132.322 206.595 131.674 213.675 C 131.634 214.323 130.622 214.323 130.663 213.675 C 131.31 206.595 133.819 199.797 137.136 193.566 C 138.472 191.098 139.928 188.63 141.547 186.324 C 142.275 185.231 143.084 183.977 144.096 183.127 C 144.581 182.723 145.309 183.451 144.864 183.815 L 144.864 183.815 Z " fill="rgb(233,218,201)"/><rect x="118.704" y="120.958" width="18.598" height="2.079" transform="matrix(1,0,0,1,0,0)" fill="rgb(181,97,74)"/><path d=" M 137.302 109.213 L 132.281 114.598 L 128.185 109.213 L 123.843 114.598 L 118.698 109.213 L 118.698 119.971 L 137.296 119.971 L 137.302 109.213 L 137.302 109.213 Z  M 121.202 117.966 C 120.919 117.966 120.69 117.738 120.69 117.454 C 120.69 117.17 120.919 116.942 121.202 116.942 C 121.486 116.942 121.714 117.17 121.714 117.454 C 121.714 117.738 121.486 117.966 121.202 117.966 Z  M 127.599 117.46 C 127.599 117.176 127.827 116.948 128.111 116.948 C 128.395 116.948 128.623 117.176 128.623 117.46 C 128.623 117.744 128.395 117.972 128.111 117.972 C 127.827 117.972 127.599 117.738 127.599 117.46 Z  M 134.014 117.46 C 134.014 117.176 134.242 116.948 134.526 116.948 C 134.81 116.948 135.038 117.176 135.038 117.46 C 135.038 117.744 134.81 117.972 134.526 117.972 C 134.242 117.972 134.014 117.738 134.014 117.46 Z " fill="rgb(255,145,45)"/><g id="Group"><g id="Group"><line x1="128.019" y1="136.268" x2="128.019" y2="140.569" vector-effect="non-scaling-stroke" stroke-width="0.307" stroke="rgb(255,145,45)" stroke-linejoin="miter" stroke-linecap="square" stroke-miterlimit="3"/><line x1="126" y1="137.497" x2="130" y2="137.497" vector-effect="non-scaling-stroke" stroke-width="0.307" stroke="rgb(255,145,45)" stroke-linejoin="miter" stroke-linecap="square" stroke-miterlimit="3"/></g></g><path d=" M 114.848 203.136 C 114.601 203.151 114.377 203.24 114.206 203.411 C 114.08 203.537 114.003 203.693 113.963 203.863 C 113.919 203.888 113.875 203.911 113.838 203.948 C 113.682 204.104 113.639 204.334 113.684 204.558 C 113.686 204.568 113.69 204.577 113.693 204.587 L 113.583 204.781 C 113.311 205.26 113.364 205.854 113.709 206.272 L 112.864 207.112 C 112.88 207.039 112.892 206.962 112.892 206.882 C 112.892 206.223 112.262 205.746 112.262 205.746 C 112.235 205.724 112.2 205.714 112.165 205.718 C 112.141 205.721 112.119 205.731 112.1 205.746 C 112.1 205.746 111.47 206.223 111.47 206.882 C 111.47 207.417 111.871 207.815 112.028 207.953 L 111.664 208.312 L 111.341 208.175 L 111.478 208.498 L 111.118 208.858 C 111.094 208.883 111.08 208.916 111.08 208.951 C 111.08 208.986 111.094 209.019 111.118 209.044 C 111.17 209.095 111.253 209.095 111.304 209.044 L 112.569 207.779 L 112.892 207.916 L 112.755 207.593 L 113.891 206.454 C 114.309 206.798 114.903 206.852 115.382 206.579 L 115.794 206.345 C 115.802 206.342 115.81 206.337 115.818 206.332 C 115.891 206.311 115.959 206.277 116.02 206.231 C 116.299 206.232 116.561 206.147 116.751 205.957 C 117.03 205.678 117.084 205.256 116.97 204.829 C 117.117 204.481 116.967 204.023 116.618 203.673 C 116.309 203.365 115.923 203.215 115.592 203.282 C 115.341 203.175 115.085 203.121 114.848 203.136 Z  M 114.872 203.395 C 115.068 203.384 115.293 203.426 115.523 203.528 C 115.55 203.54 115.579 203.543 115.608 203.536 C 115.819 203.479 116.164 203.583 116.436 203.855 C 116.746 204.165 116.831 204.563 116.723 204.765 C 116.708 204.794 116.705 204.829 116.715 204.862 C 116.826 205.24 116.774 205.571 116.57 205.775 C 116.43 205.914 116.236 205.983 116 205.977 C 115.964 205.975 115.929 205.988 115.903 206.013 C 115.862 206.054 115.808 206.084 115.745 206.098 C 115.732 206.097 115.718 206.098 115.705 206.102 C 115.646 206.109 115.585 206.106 115.527 206.094 C 115.362 206.061 115.171 205.961 115.01 205.799 C 114.878 205.667 114.786 205.516 114.739 205.375 C 114.726 205.337 114.696 205.307 114.658 205.294 C 114.517 205.247 114.366 205.156 114.234 205.023 C 114.072 204.862 113.972 204.671 113.939 204.506 C 113.906 204.341 113.938 204.212 114.02 204.13 C 114.048 204.102 114.08 204.082 114.121 204.065 C 114.163 204.049 114.194 204.012 114.202 203.969 C 114.228 203.818 114.29 203.691 114.388 203.593 C 114.509 203.471 114.676 203.405 114.872 203.395 L 114.872 203.395 Z  M 115.705 203.779 C 115.496 203.779 115.382 203.878 115.313 203.956 C 115.304 203.953 115.307 203.951 115.297 203.948 C 115.223 203.927 115.114 203.908 114.961 203.908 C 114.885 203.908 114.765 203.926 114.65 204.013 C 114.536 204.1 114.444 204.262 114.444 204.49 C 114.444 204.716 114.576 204.875 114.695 204.958 C 114.813 205.042 114.933 205.068 114.933 205.068 C 114.98 205.084 115.033 205.072 115.068 205.037 C 115.128 205.043 115.184 205.007 115.203 204.95 C 115.223 204.894 115.2 204.831 115.149 204.799 C 115.098 204.767 115.032 204.775 114.99 204.817 C 114.99 204.817 114.915 204.797 114.84 204.744 C 114.765 204.691 114.703 204.623 114.703 204.49 C 114.703 204.325 114.754 204.26 114.808 204.219 C 114.862 204.178 114.935 204.166 114.961 204.166 C 115.092 204.166 115.175 204.185 115.224 204.199 C 115.273 204.213 115.277 204.215 115.277 204.215 C 115.306 204.236 115.343 204.243 115.379 204.236 C 115.414 204.228 115.444 204.206 115.462 204.174 C 115.462 204.174 115.538 204.037 115.705 204.037 C 115.947 204.037 116.004 204.215 116.004 204.215 C 116.02 204.253 116.053 204.282 116.093 204.292 C 116.093 204.292 116.128 204.299 116.17 204.336 C 116.211 204.373 116.254 204.428 116.254 204.554 C 116.254 204.601 116.278 204.644 116.319 204.668 C 116.359 204.691 116.408 204.691 116.449 204.668 C 116.489 204.644 116.514 204.601 116.513 204.554 C 116.513 204.358 116.427 204.219 116.339 204.142 C 116.279 204.089 116.248 204.086 116.214 204.074 C 116.178 204.007 116.039 203.779 115.705 203.779 Z  M 115.592 204.425 C 115.536 204.432 115.491 204.475 115.481 204.53 C 115.47 204.586 115.497 204.641 115.547 204.668 C 115.547 204.668 115.866 204.841 115.866 205.136 C 115.866 205.271 115.787 205.337 115.681 205.391 C 115.574 205.444 115.462 205.46 115.462 205.46 C 115.391 205.469 115.34 205.534 115.349 205.605 C 115.358 205.676 115.423 205.727 115.495 205.718 C 115.495 205.718 115.642 205.698 115.794 205.621 C 115.946 205.544 116.125 205.386 116.125 205.136 C 116.125 204.667 115.669 204.441 115.669 204.441 C 115.645 204.428 115.618 204.422 115.592 204.425 Z  M 113.814 204.894 C 113.879 205.008 113.959 205.112 114.052 205.205 C 114.185 205.339 114.345 205.444 114.521 205.512 C 114.59 205.688 114.694 205.848 114.828 205.981 C 114.984 206.136 115.158 206.25 115.337 206.312 L 115.256 206.357 C 114.841 206.594 114.318 206.521 113.979 206.183 C 113.641 205.845 113.569 205.322 113.806 204.906 L 113.814 204.894 Z  M 112.181 206.037 C 112.298 206.146 112.634 206.473 112.634 206.882 C 112.634 207.291 112.298 207.618 112.181 207.726 C 112.064 207.618 111.729 207.291 111.729 206.882 C 111.729 206.473 112.064 206.146 112.181 206.037 Z " fill="rgb(255,145,45)"/><path d=" M 141.217 203.136 C 141.465 203.151 141.689 203.24 141.86 203.411 C 141.986 203.537 142.062 203.693 142.102 203.863 C 142.146 203.888 142.191 203.911 142.227 203.948 C 142.384 204.104 142.426 204.334 142.381 204.558 C 142.379 204.568 142.375 204.577 142.373 204.587 L 142.482 204.781 C 142.755 205.26 142.701 205.854 142.357 206.272 L 143.201 207.112 C 143.185 207.039 143.173 206.962 143.173 206.882 C 143.173 206.223 143.803 205.746 143.803 205.746 C 143.831 205.724 143.866 205.714 143.9 205.718 C 143.924 205.721 143.947 205.731 143.965 205.746 C 143.965 205.746 144.595 206.223 144.595 206.882 C 144.595 207.417 144.194 207.815 144.038 207.953 L 144.401 208.312 L 144.725 208.175 L 144.587 208.498 L 144.947 208.858 C 144.972 208.883 144.986 208.916 144.986 208.951 C 144.986 208.986 144.972 209.019 144.947 209.044 C 144.895 209.095 144.813 209.095 144.761 209.044 L 143.496 207.779 L 143.173 207.916 L 143.311 207.593 L 142.175 206.454 C 141.757 206.798 141.162 206.852 140.684 206.579 L 140.272 206.345 C 140.263 206.342 140.255 206.337 140.247 206.332 C 140.175 206.311 140.106 206.277 140.045 206.231 C 139.767 206.232 139.504 206.147 139.314 205.957 C 139.035 205.678 138.982 205.256 139.096 204.829 C 138.948 204.481 139.098 204.023 139.447 203.673 C 139.756 203.365 140.142 203.215 140.474 203.282 C 140.724 203.175 140.981 203.121 141.217 203.136 Z  M 141.193 203.395 C 140.997 203.384 140.773 203.426 140.543 203.528 C 140.516 203.54 140.486 203.543 140.458 203.536 C 140.247 203.479 139.902 203.583 139.629 203.855 C 139.32 204.165 139.235 204.563 139.342 204.765 C 139.357 204.794 139.36 204.829 139.35 204.862 C 139.239 205.24 139.292 205.571 139.496 205.775 C 139.635 205.914 139.829 205.983 140.066 205.977 C 140.102 205.975 140.137 205.988 140.163 206.013 C 140.204 206.054 140.257 206.084 140.32 206.098 C 140.334 206.097 140.347 206.098 140.361 206.102 C 140.42 206.109 140.48 206.106 140.538 206.094 C 140.704 206.061 140.894 205.961 141.056 205.799 C 141.188 205.667 141.28 205.516 141.326 205.375 C 141.34 205.337 141.369 205.307 141.407 205.294 C 141.549 205.247 141.699 205.156 141.832 205.023 C 141.993 204.862 142.094 204.671 142.126 204.506 C 142.159 204.341 142.127 204.212 142.046 204.13 C 142.017 204.102 141.985 204.082 141.945 204.065 C 141.903 204.049 141.872 204.012 141.864 203.969 C 141.837 203.818 141.776 203.691 141.678 203.593 C 141.556 203.471 141.389 203.405 141.193 203.395 L 141.193 203.395 Z  M 140.361 203.779 C 140.569 203.779 140.683 203.878 140.753 203.956 C 140.762 203.953 140.759 203.951 140.769 203.948 C 140.843 203.927 140.952 203.908 141.104 203.908 C 141.18 203.908 141.301 203.926 141.415 204.013 C 141.53 204.1 141.621 204.262 141.621 204.49 C 141.621 204.716 141.489 204.875 141.371 204.958 C 141.252 205.042 141.132 205.068 141.132 205.068 C 141.085 205.084 141.033 205.072 140.998 205.037 C 140.938 205.043 140.882 205.007 140.862 204.95 C 140.843 204.894 140.865 204.831 140.916 204.799 C 140.967 204.767 141.033 204.775 141.076 204.817 C 141.076 204.817 141.15 204.797 141.225 204.744 C 141.301 204.691 141.363 204.623 141.363 204.49 C 141.363 204.325 141.312 204.26 141.258 204.219 C 141.204 204.178 141.13 204.166 141.104 204.166 C 140.974 204.166 140.891 204.185 140.842 204.199 C 140.792 204.213 140.789 204.215 140.789 204.215 C 140.759 204.236 140.722 204.243 140.687 204.236 C 140.652 204.228 140.621 204.206 140.603 204.174 C 140.603 204.174 140.527 204.037 140.361 204.037 C 140.118 204.037 140.062 204.215 140.062 204.215 C 140.046 204.253 140.013 204.282 139.973 204.292 C 139.973 204.292 139.938 204.299 139.896 204.336 C 139.854 204.373 139.811 204.428 139.811 204.554 C 139.812 204.601 139.787 204.644 139.747 204.668 C 139.706 204.691 139.657 204.691 139.617 204.668 C 139.576 204.644 139.552 204.601 139.552 204.554 C 139.552 204.358 139.639 204.219 139.726 204.142 C 139.786 204.089 139.818 204.086 139.851 204.074 C 139.888 204.007 140.027 203.779 140.361 203.779 Z  M 140.474 204.425 C 140.53 204.432 140.575 204.475 140.585 204.53 C 140.595 204.586 140.568 204.641 140.518 204.668 C 140.518 204.668 140.199 204.841 140.199 205.136 C 140.199 205.271 140.278 205.337 140.385 205.391 C 140.491 205.444 140.603 205.46 140.603 205.46 C 140.674 205.469 140.725 205.534 140.716 205.605 C 140.707 205.676 140.642 205.727 140.571 205.718 C 140.571 205.718 140.424 205.698 140.272 205.621 C 140.12 205.544 139.94 205.386 139.94 205.136 C 139.94 204.667 140.397 204.441 140.397 204.441 C 140.42 204.428 140.447 204.422 140.474 204.425 Z  M 142.252 204.894 C 142.187 205.008 142.106 205.112 142.013 205.205 C 141.88 205.339 141.721 205.444 141.545 205.512 C 141.476 205.688 141.371 205.848 141.237 205.981 C 141.082 206.136 140.907 206.25 140.728 206.312 L 140.809 206.357 C 141.225 206.594 141.748 206.521 142.086 206.183 C 142.425 205.845 142.497 205.322 142.26 204.906 L 142.252 204.894 Z  M 143.884 206.037 C 143.767 206.146 143.432 206.473 143.432 206.882 C 143.432 207.291 143.767 207.618 143.884 207.726 C 144.001 207.618 144.337 207.291 144.337 206.882 C 144.337 206.473 144.001 206.146 143.884 206.037 Z " fill="rgb(255,145,45)"/><path d=" M 128.012 194.092 C 127.379 194.092 126.861 194.61 126.861 195.243 C 126.861 195.775 127.23 196.22 127.724 196.348 L 127.724 196.968 L 126.861 196.968 L 126.861 197.543 L 127.724 197.543 L 127.724 199.835 C 127.027 199.78 126.562 199.525 126.232 199.233 C 125.981 199.01 125.812 198.765 125.693 198.559 L 126.151 198.334 L 125.001 197.813 L 124.696 199.053 L 125.172 198.819 C 125.347 199.137 125.575 199.423 125.846 199.664 C 126.264 200.035 126.881 200.341 127.725 200.401 L 127.725 200.419 L 128.012 200.707 L 128.3 200.419 L 128.3 200.401 C 129.143 200.341 129.76 200.035 130.178 199.664 C 130.449 199.423 130.677 199.137 130.852 198.819 L 131.328 199.053 L 131.023 197.813 L 129.872 198.334 L 130.331 198.559 C 130.212 198.765 130.043 199.01 129.791 199.233 C 129.461 199.525 128.997 199.78 128.3 199.835 L 128.3 197.543 L 129.162 197.543 L 129.162 196.968 L 128.3 196.968 L 128.3 196.348 C 128.794 196.22 129.162 195.775 129.162 195.243 C 129.162 194.61 128.645 194.092 128.012 194.092 L 128.012 194.092 Z  M 128.012 194.667 C 128.333 194.667 128.587 194.921 128.587 195.243 C 128.587 195.564 128.333 195.818 128.012 195.818 C 127.691 195.818 127.437 195.564 127.437 195.243 C 127.437 194.921 127.691 194.667 128.012 194.667 Z " fill="rgb(242,139,47)"/><path d=" M 128.98 135.667 C 129.42 135.667 129.772 136.02 129.772 136.46 C 129.772 136.9 128.915 137.867 128.012 138.615 C 127.11 137.845 126.252 136.877 126.252 136.46 C 126.252 136.02 126.604 135.667 127.045 135.667 C 127.572 135.667 128.012 136.327 128.012 136.327 C 128.012 136.327 128.43 135.667 128.98 135.667 Z  M 128.98 135.227 C 128.585 135.227 128.232 135.425 128.012 135.733 C 127.792 135.425 127.44 135.227 127.045 135.227 C 126.717 135.226 126.404 135.356 126.172 135.587 C 125.941 135.819 125.811 136.133 125.812 136.46 C 125.812 137.427 128.012 139.187 128.012 139.187 C 128.012 139.187 130.212 137.427 130.212 136.46 C 130.212 135.777 129.662 135.227 128.98 135.227 Z " fill="rgb(242,139,47)"/></g></svg>